<svg width="25" height="25" viewBox="0 0 25 25" fill="none" xmlns="http://www.w3.org/2000/svg">
<mask id="mask0" mask-type="alpha" maskUnits="userSpaceOnUse" x="4" y="15" width="17" height="8">
<path fill-rule="evenodd" clip-rule="evenodd" d="M4.16666 15.1001H20.6665V22.7814H4.16666V15.1001Z" fill="white"/>
</mask>
<g mask="url(#mask0)">
<path fill-rule="evenodd" clip-rule="evenodd" d="M12.4176 16.6626C7.97906 16.6626 5.72906 17.4251 5.72906 18.9303C5.72906 20.4491 7.97906 21.2189 12.4176 21.2189C16.8551 21.2189 19.1041 20.4564 19.1041 18.9511C19.1041 17.4324 16.8551 16.6626 12.4176 16.6626ZM12.4176 22.7814C10.377 22.7814 4.16656 22.7814 4.16656 18.9303C4.16656 15.497 8.87594 15.1001 12.4176 15.1001C14.4582 15.1001 20.6666 15.1001 20.6666 18.9511C20.6666 22.3845 15.9582 22.7814 12.4176 22.7814Z" fill="#6A6970"/>
</g>
<mask id="mask1" mask-type="alpha" maskUnits="userSpaceOnUse" x="6" y="2" width="12" height="12">
<path fill-rule="evenodd" clip-rule="evenodd" d="M6.88528 2.08344H17.9478V13.1445H6.88528V2.08344Z" fill="white"/>
</mask>
<g mask="url(#mask1)">
<path fill-rule="evenodd" clip-rule="evenodd" d="M12.4176 3.57052C10.1874 3.57052 8.37282 5.38406 8.37282 7.61427C8.36553 9.83719 10.1666 11.6497 12.3874 11.658L12.4176 12.4018V11.658C14.6468 11.658 16.4603 9.84344 16.4603 7.61427C16.4603 5.38406 14.6468 3.57052 12.4176 3.57052ZM12.4176 13.1445H12.3843C9.34053 13.1351 6.8749 10.6528 6.88532 7.61115C6.88532 4.56427 9.36657 2.08302 12.4176 2.08302C15.4676 2.08302 17.9478 4.56427 17.9478 7.61427C17.9478 10.6643 15.4676 13.1445 12.4176 13.1445Z" fill="#6A6970"/>
</g>
</svg>
